<?xml version="1.0" encoding="UTF-8" standalone="no"?>
<svg
   xmlns:dc="http://purl.org/dc/elements/1.1/"
   xmlns:cc="http://creativecommons.org/ns#"
   xmlns:rdf="http://www.w3.org/1999/02/22-rdf-syntax-ns#"
   xmlns:svg="http://www.w3.org/2000/svg"
   xmlns="http://www.w3.org/2000/svg"
   xmlns:sodipodi="http://sodipodi.sourceforge.net/DTD/sodipodi-0.dtd"
   xmlns:inkscape="http://www.inkscape.org/namespaces/inkscape"
   height="416"
   width="555"
   class="stained-glass"
   style="display: inline-block;"
   id="svg2"
   version="1.1"
   inkscape:version="0.91 r13725"
   sodipodi:docname="stained-glass.svg">
  <metadata
     id="metadata480">
    <rdf:RDF>
      <cc:Work
         rdf:about="">
        <dc:format>image/svg+xml</dc:format>
        <dc:type
           rdf:resource="http://purl.org/dc/dcmitype/StillImage" />
        <dc:title></dc:title>
      </cc:Work>
    </rdf:RDF>
  </metadata>
  <defs
     id="defs478" />
  <sodipodi:namedview
     pagecolor="#ffffff"
     bordercolor="#666666"
     borderopacity="1"
     objecttolerance="10"
     gridtolerance="10"
     guidetolerance="10"
     inkscape:pageopacity="0"
     inkscape:pageshadow="2"
     inkscape:window-width="640"
     inkscape:window-height="480"
     id="namedview476"
     showgrid="false"
     inkscape:zoom="0.56576577"
     inkscape:cx="246.56847"
     inkscape:cy="208"
     inkscape:window-x="0"
     inkscape:window-y="0"
     inkscape:window-maximized="0"
     inkscape:current-layer="svg2" />
  <g
     id="g4">
    <path
       d="M24.56777820105828,38.381843002918735L0,0L0,55.5Z"
       style="stroke-width: 1.51px; stroke: rgb(12, 14, 39);"
       fill="#0c0e27"
       id="path6" />
    <path
       d="M24.56777820105828,38.381843002918735L0,55.5L19.74366590346358,81.69497685283768Z"
       style="stroke-width: 1.51px; stroke: rgb(23, 23, 49);"
       fill="#171731"
       id="path8" />
    <path
       d="M24.56777820105828,38.381843002918735L19.74366590346358,81.69497685283768L62.06907577422323,111.45733810462751Z"
       style="stroke-width: 1.51px; stroke: rgb(16, 16, 40);"
       fill="#101028"
       id="path10" />
    <path
       d="M24.56777820105828,38.381843002918735L62.06907577422323,111.45733810462751L106.24795109008946,87.05832215882714Z"
       style="stroke-width: 1.51px; stroke: rgb(28, 28, 54);"
       fill="#1c1c36"
       id="path12" />
    <path
       d="M24.56777820105828,38.381843002918735L106.24795109008946,87.05832215882714L108.18156611855994,32.38660809096599Z"
       style="stroke-width: 1.51px; stroke: rgb(21, 23, 46);"
       fill="#15172e"
       id="path14" />
    <path
       d="M24.56777820105828,38.381843002918735L108.18156611855994,32.38660809096599L81.88216694603875,12.350517640133674Z"
       style="stroke-width: 1.51px; stroke: rgb(19, 19, 43);"
       fill="#13132b"
       id="path16" />
    <path
       d="M24.56777820105828,38.381843002918735L81.88216694603875,12.350517640133674L41.6,0Z"
       style="stroke-width: 1.51px; stroke: rgb(21, 22, 50);"
       fill="#151632"
       id="path18" />
    <path
       d="M24.56777820105828,38.381843002918735L41.6,0L0,0Z"
       style="stroke-width: 1.51px; stroke: rgb(16, 17, 45);"
       fill="#10112d"
       id="path20" />
    <path
       d="M81.88216694603875,12.350517640133674L108.18156611855994,32.38660809096599L124.80000000000001,0Z"
       style="stroke-width: 1.51px; stroke: rgb(14, 16, 41);"
       fill="#0e1029"
       id="path22" />
    <path
       d="M81.88216694603875,12.350517640133674L124.80000000000001,0L83.2,0Z"
       style="stroke-width: 1.51px; stroke: rgb(23, 25, 48);"
       fill="#171930"
       id="path24" />
    <path
       d="M81.88216694603875,12.350517640133674L83.2,0L41.6,0Z"
       style="stroke-width: 1.51px; stroke: rgb(22, 22, 46);"
       fill="#16162e"
       id="path26" />
    <path
       d="M108.18156611855994,32.38660809096599L106.24795109008946,87.05832215882714L146.1217860478718,37.39567620815626Z"
       style="stroke-width: 1.51px; stroke: rgb(27, 28, 56);"
       fill="#1b1c38"
       id="path28" />
    <path
       d="M108.18156611855994,32.38660809096599L146.1217860478718,37.39567620815626L124.80000000000001,0Z"
       style="stroke-width: 1.51px; stroke: rgb(17, 19, 42);"
       fill="#11132a"
       id="path30" />
    <path
       d="M146.1217860478718,37.39567620815626L106.24795109008946,87.05832215882714L150.35686647504235,79.84643639242108Z"
       style="stroke-width: 1.51px; stroke: rgb(22, 24, 47);"
       fill="#16182f"
       id="path32" />
    <path
       d="M146.1217860478718,37.39567620815626L150.35686647504235,79.84643639242108L182.7161474884418,75.86420836780474Z"
       style="stroke-width: 1.51px; stroke: rgb(28, 29, 50);"
       fill="#1c1d32"
       id="path34" />
    <path
       d="M146.1217860478718,37.39567620815626L182.7161474884418,75.86420836780474L172.2548091709983,23.656208227144973Z"
       style="stroke-width: 1.51px; stroke: rgb(23, 24, 52);"
       fill="#171834"
       id="path36" />
    <path
       d="M146.1217860478718,37.39567620815626L172.2548091709983,23.656208227144973L166.4,0Z"
       style="stroke-width: 1.51px; stroke: rgb(15, 15, 39);"
       fill="#0f0f27"
       id="path38" />
    <path
       d="M146.1217860478718,37.39567620815626L166.4,0L124.80000000000001,0Z"
       style="stroke-width: 1.51px; stroke: rgb(19, 21, 46);"
       fill="#13152e"
       id="path40" />
    <path
       d="M172.2548091709983,23.656208227144973L182.7161474884418,75.86420836780474L218.55909667780102,38.83331987513651Z"
       style="stroke-width: 1.51px; stroke: rgb(21, 20, 42);"
       fill="#15142a"
       id="path42" />
    <path
       d="M172.2548091709983,23.656208227144973L218.55909667780102,38.83331987513651L208,0Z"
       style="stroke-width: 1.51px; stroke: rgb(23, 27, 54);"
       fill="#171b36"
       id="path44" />
    <path
       d="M172.2548091709983,23.656208227144973L208,0L166.4,0Z"
       style="stroke-width: 1.51px; stroke: rgb(22, 21, 52);"
       fill="#161534"
       id="path46" />
    <path
       d="M218.55909667780102,38.83331987513651L182.7161474884418,75.86420836780474L229.58461642963545,73.50748409215132Z"
       style="stroke-width: 1.51px; stroke: rgb(28, 28, 63);"
       fill="#1c1c3f"
       id="path48" />
    <path
       d="M218.55909667780102,38.83331987513651L229.58461642963545,73.50748409215132L268.48865201611386,70.10082475462612Z"
       style="stroke-width: 1.51px; stroke: rgb(27, 28, 48);"
       fill="#1b1c30"
       id="path50" />
    <path
       d="M218.55909667780102,38.83331987513651L268.48865201611386,70.10082475462612L269.5148190363507,20.445842643889893Z"
       style="stroke-width: 1.51px; stroke: rgb(21, 22, 50);"
       fill="#151632"
       id="path52" />
    <path
       d="M218.55909667780102,38.83331987513651L269.5148190363507,20.445842643889893L249.60000000000002,0Z"
       style="stroke-width: 1.51px; stroke: rgb(19, 19, 47);"
       fill="#13132f"
       id="path54" />
    <path
       d="M218.55909667780102,38.83331987513651L249.60000000000002,0L208,0Z"
       style="stroke-width: 1.51px; stroke: rgb(13, 13, 36);"
       fill="#0d0d24"
       id="path56" />
    <path
       d="M269.5148190363507,20.445842643889893L268.48865201611386,70.10082475462612L320.5956039425025,19.20693918705247Z"
       style="stroke-width: 1.51px; stroke: rgb(25, 27, 48);"
       fill="#191b30"
       id="path58" />
    <path
       d="M269.5148190363507,20.445842643889893L320.5956039425025,19.20693918705247L291.2,0Z"
       style="stroke-width: 1.51px; stroke: rgb(24, 24, 48);"
       fill="#181830"
       id="path60" />
    <path
       d="M269.5148190363507,20.445842643889893L291.2,0L249.60000000000002,0Z"
       style="stroke-width: 1.51px; stroke: rgb(16, 18, 43);"
       fill="#10122b"
       id="path62" />
    <path
       d="M320.5956039425025,19.20693918705247L268.48865201611386,70.10082475462612L318.3729862295243,80.893892709936Z"
       style="stroke-width: 1.51px; stroke: rgb(56, 47, 74);"
       fill="#382f4a"
       id="path64" />
    <path
       d="M320.5956039425025,19.20693918705247L318.3729862295243,80.893892709936L341.858836051944,86.73588819565357Z"
       style="stroke-width: 1.51px; stroke: rgb(22, 18, 46);"
       fill="#16122e"
       id="path66" />
    <path
       d="M320.5956039425025,19.20693918705247L341.858836051944,86.73588819565357L356.75595109809615,9.722298288395397Z"
       style="stroke-width: 1.51px; stroke: rgb(31, 33, 56);"
       fill="#1f2138"
       id="path68" />
    <path
       d="M320.5956039425025,19.20693918705247L356.75595109809615,9.722298288395397L332.8,0Z"
       style="stroke-width: 1.51px; stroke: rgb(17, 17, 40);"
       fill="#111128"
       id="path70" />
    <path
       d="M320.5956039425025,19.20693918705247L332.8,0L291.2,0Z"
       style="stroke-width: 1.51px; stroke: rgb(27, 28, 49);"
       fill="#1b1c31"
       id="path72" />
    <path
       d="M356.75595109809615,9.722298288395397L341.858836051944,86.73588819565357L387.32202204461777,28.158097496844746Z"
       style="stroke-width: 1.51px; stroke: rgb(28, 28, 54);"
       fill="#1c1c36"
       id="path74" />
    <path
       d="M356.75595109809615,9.722298288395397L387.32202204461777,28.158097496844746L374.40000000000003,0Z"
       style="stroke-width: 1.51px; stroke: rgb(27, 28, 59);"
       fill="#1b1c3b"
       id="path76" />
    <path
       d="M356.75595109809615,9.722298288395397L374.40000000000003,0L332.8,0Z"
       style="stroke-width: 1.51px; stroke: rgb(20, 21, 50);"
       fill="#141532"
       id="path78" />
    <path
       d="M387.32202204461777,28.158097496844746L341.858836051944,86.73588819565357L398.8123691655098,72.1530267901701Z"
       style="stroke-width: 1.51px; stroke: rgb(27, 27, 53);"
       fill="#1b1b35"
       id="path80" />
    <path
       d="M387.32202204461777,28.158097496844746L398.8123691655098,72.1530267901701L440.2919666455461,28.478116680701596Z"
       style="stroke-width: 1.51px; stroke: rgb(23, 24, 45);"
       fill="#17182d"
       id="path82" />
    <path
       d="M387.32202204461777,28.158097496844746L440.2919666455461,28.478116680701596L416,0Z"
       style="stroke-width: 1.51px; stroke: rgb(22, 22, 48);"
       fill="#161630"
       id="path84" />
    <path
       d="M387.32202204461777,28.158097496844746L416,0L374.40000000000003,0Z"
       style="stroke-width: 1.51px; stroke: rgb(32, 34, 61);"
       fill="#20223d"
       id="path86" />
    <path
       d="M440.2919666455461,28.478116680701596L398.8123691655098,72.1530267901701L440.1923445595122,67.47189772918169Z"
       style="stroke-width: 1.51px; stroke: rgb(22, 23, 51);"
       fill="#161733"
       id="path88" />
    <path
       d="M440.2919666455461,28.478116680701596L440.1923445595122,67.47189772918169L478.1393501774554,34.575981906396436Z"
       style="stroke-width: 1.51px; stroke: rgb(33, 33, 60);"
       fill="#21213c"
       id="path90" />
    <path
       d="M440.2919666455461,28.478116680701596L478.1393501774554,34.575981906396436L457.6,0Z"
       style="stroke-width: 1.51px; stroke: rgb(28, 29, 57);"
       fill="#1c1d39"
       id="path92" />
    <path
       d="M440.2919666455461,28.478116680701596L457.6,0L416,0Z"
       style="stroke-width: 1.51px; stroke: rgb(25, 25, 49);"
       fill="#191931"
       id="path94" />
    <path
       d="M478.1393501774554,34.575981906396436L440.1923445595122,67.47189772918169L457.9348167496523,80.27791061910618Z"
       style="stroke-width: 1.51px; stroke: rgb(32, 31, 64);"
       fill="#201f40"
       id="path96" />
    <path
       d="M478.1393501774554,34.575981906396436L457.9348167496523,80.27791061910618L523.7446873125888,82.29083483908022Z"
       style="stroke-width: 1.51px; stroke: rgb(31, 28, 56);"
       fill="#1f1c38"
       id="path98" />
    <path
       d="M478.1393501774554,34.575981906396436L523.7446873125888,82.29083483908022L521.9493531628723,15.567606958612943Z"
       style="stroke-width: 1.51px; stroke: rgb(23, 23, 51);"
       fill="#171733"
       id="path100" />
    <path
       d="M478.1393501774554,34.575981906396436L521.9493531628723,15.567606958612943L499.20000000000005,0Z"
       style="stroke-width: 1.51px; stroke: rgb(18, 17, 49);"
       fill="#121131"
       id="path102" />
    <path
       d="M478.1393501774554,34.575981906396436L499.20000000000005,0L457.6,0Z"
       style="stroke-width: 1.51px; stroke: rgb(21, 23, 46);"
       fill="#15172e"
       id="path104" />
    <path
       d="M521.9493531628723,15.567606958612943L523.7446873125888,82.29083483908022L554,48.01840107534795Z"
       style="stroke-width: 1.51px; stroke: rgb(21, 21, 47);"
       fill="#15152f"
       id="path106" />
    <path
       d="M521.9493531628723,15.567606958612943L554,48.01840107534795L540.8000000000001,0Z"
       style="stroke-width: 1.51px; stroke: rgb(15, 15, 41);"
       fill="#0f0f29"
       id="path108" />
    <path
       d="M521.9493531628723,15.567606958612943L540.8000000000001,0L499.20000000000005,0Z"
       style="stroke-width: 1.51px; stroke: rgb(16, 18, 43);"
       fill="#10122b"
       id="path110" />
    <path
       d="M554,48.01840107534795L523.7446873125888,82.29083483908022L554,55.5Z"
       style="stroke-width: 1.51px; stroke: rgb(21, 21, 49);"
       fill="#151531"
       id="path112" />
    <path
       d="M554,48.01840107534795L554,0L540.8000000000001,0Z"
       style="stroke-width: 1.51px; stroke: rgb(20, 20, 45);"
       fill="#14142d"
       id="path114" />
    <path
       d="M19.74366590346358,81.69497685283768L0,55.5L0,111Z"
       style="stroke-width: 1.51px; stroke: rgb(17, 17, 43);"
       fill="#11112b"
       id="path116" />
    <path
       d="M19.74366590346358,81.69497685283768L0,111L25.22461458630327,136.8173585867994Z"
       style="stroke-width: 1.51px; stroke: rgb(18, 19, 47);"
       fill="#12132f"
       id="path118" />
    <path
       d="M19.74366590346358,81.69497685283768L25.22461458630327,136.8173585867994L62.06907577422323,111.45733810462751Z"
       style="stroke-width: 1.51px; stroke: rgb(21, 23, 45);"
       fill="#15172d"
       id="path120" />
    <path
       d="M62.06907577422323,111.45733810462751L25.22461458630327,136.8173585867994L62.965269918841415,134.51930740110853Z"
       style="stroke-width: 1.51px; stroke: rgb(24, 25, 53);"
       fill="#181935"
       id="path122" />
    <path
       d="M62.06907577422323,111.45733810462751L62.965269918841415,134.51930740110853L106.70467640084243,143.8381411286591Z"
       style="stroke-width: 1.51px; stroke: rgb(24, 25, 53);"
       fill="#181935"
       id="path124" />
    <path
       d="M62.06907577422323,111.45733810462751L106.70467640084243,143.8381411286591L106.24795109008946,87.05832215882714Z"
       style="stroke-width: 1.51px; stroke: rgb(25, 24, 50);"
       fill="#191832"
       id="path126" />
    <path
       d="M106.24795109008946,87.05832215882714L106.70467640084243,143.8381411286591L144.24577210099886,131.74628852508044Z"
       style="stroke-width: 1.51px; stroke: rgb(16, 16, 40);"
       fill="#101028"
       id="path128" />
    <path
       d="M106.24795109008946,87.05832215882714L144.24577210099886,131.74628852508044L150.35686647504235,79.84643639242108Z"
       style="stroke-width: 1.51px; stroke: rgb(23, 24, 52);"
       fill="#171834"
       id="path130" />
    <path
       d="M150.35686647504235,79.84643639242108L144.24577210099886,131.74628852508044L179.6732279358726,128.50418149161075Z"
       style="stroke-width: 1.51px; stroke: rgb(23, 23, 47);"
       fill="#17172f"
       id="path132" />
    <path
       d="M150.35686647504235,79.84643639242108L179.6732279358726,128.50418149161075L182.7161474884418,75.86420836780474Z"
       style="stroke-width: 1.51px; stroke: rgb(29, 30, 58);"
       fill="#1d1e3a"
       id="path134" />
    <path
       d="M182.7161474884418,75.86420836780474L179.6732279358726,128.50418149161075L224.63065912452473,135.07670125705818Z"
       style="stroke-width: 1.51px; stroke: rgb(30, 31, 61);"
       fill="#1e1f3d"
       id="path136" />
    <path
       d="M182.7161474884418,75.86420836780474L224.63065912452473,135.07670125705818L229.58461642963545,73.50748409215132Z"
       style="stroke-width: 1.51px; stroke: rgb(24, 24, 48);"
       fill="#181830"
       id="path138" />
    <path
       d="M229.58461642963545,73.50748409215132L224.63065912452473,135.07670125705818L268.48865201611386,70.10082475462612Z"
       style="stroke-width: 1.51px; stroke: rgb(17, 19, 42);"
       fill="#11132a"
       id="path140" />
    <path
       d="M268.48865201611386,70.10082475462612L224.63065912452473,135.07670125705818L271.3754865783421,151.97635341794881Z"
       style="stroke-width: 1.51px; stroke: rgb(44, 40, 64);"
       fill="#2c2840"
       id="path142" />
    <path
       d="M268.48865201611386,70.10082475462612L271.3754865783421,151.97635341794881L317.14888354938313,117.21189698999459Z"
       style="stroke-width: 1.51px; stroke: rgb(55, 40, 71);"
       fill="#372847"
       id="path144" />
    <path
       d="M268.48865201611386,70.10082475462612L317.14888354938313,117.21189698999459L318.3729862295243,80.893892709936Z"
       style="stroke-width: 1.51px; stroke: rgb(39, 25, 48);"
       fill="#271930"
       id="path146" />
    <path
       d="M318.3729862295243,80.893892709936L317.14888354938313,117.21189698999459L341.858836051944,86.73588819565357Z"
       style="stroke-width: 1.51px; stroke: rgb(39, 39, 67);"
       fill="#272743"
       id="path148" />
    <path
       d="M341.858836051944,86.73588819565357L317.14888354938313,117.21189698999459L378.9856803211376,150.13162503132494Z"
       style="stroke-width: 1.51px; stroke: rgb(35, 31, 64);"
       fill="#231f40"
       id="path150" />
    <path
       d="M341.858836051944,86.73588819565357L378.9856803211376,150.13162503132494L398.8123691655098,72.1530267901701Z"
       style="stroke-width: 1.51px; stroke: rgb(32, 32, 57);"
       fill="#202039"
       id="path152" />
    <path
       d="M398.8123691655098,72.1530267901701L378.9856803211376,150.13162503132494L428.8242560614554,135.13703418249517Z"
       style="stroke-width: 1.51px; stroke: rgb(32, 31, 62);"
       fill="#201f3e"
       id="path154" />
    <path
       d="M398.8123691655098,72.1530267901701L428.8242560614554,135.13703418249517L440.1923445595122,67.47189772918169Z"
       style="stroke-width: 1.51px; stroke: rgb(33, 33, 60);"
       fill="#21213c"
       id="path156" />
    <path
       d="M440.1923445595122,67.47189772918169L428.8242560614554,135.13703418249517L457.9348167496523,80.27791061910618Z"
       style="stroke-width: 1.51px; stroke: rgb(32, 32, 66);"
       fill="#202042"
       id="path158" />
    <path
       d="M457.9348167496523,80.27791061910618L428.8242560614554,135.13703418249517L486.7493559800545,143.64748690933814Z"
       style="stroke-width: 1.51px; stroke: rgb(24, 21, 50);"
       fill="#181532"
       id="path160" />
    <path
       d="M457.9348167496523,80.27791061910618L486.7493559800545,143.64748690933814L510.6295941306103,135.61591204435558Z"
       style="stroke-width: 1.51px; stroke: rgb(25, 25, 54);"
       fill="#191936"
       id="path162" />
    <path
       d="M457.9348167496523,80.27791061910618L510.6295941306103,135.61591204435558L523.7446873125888,82.29083483908022Z"
       style="stroke-width: 1.51px; stroke: rgb(26, 26, 51);"
       fill="#1a1a33"
       id="path164" />
    <path
       d="M523.7446873125888,82.29083483908022L510.6295941306103,135.61591204435558L554,111Z"
       style="stroke-width: 1.51px; stroke: rgb(24, 21, 48);"
       fill="#181530"
       id="path166" />
    <path
       d="M523.7446873125888,82.29083483908022L554,111L554,55.5Z"
       style="stroke-width: 1.51px; stroke: rgb(24, 24, 49);"
       fill="#181831"
       id="path168" />
    <path
       d="M25.22461458630327,136.8173585867994L0,111L0,166.5Z"
       style="stroke-width: 1.51px; stroke: rgb(21, 21, 55);"
       fill="#151537"
       id="path170" />
    <path
       d="M25.22461458630327,136.8173585867994L0,166.5L25.290191915803113,205.03542054826556Z"
       style="stroke-width: 1.51px; stroke: rgb(20, 21, 48);"
       fill="#141530"
       id="path172" />
    <path
       d="M25.22461458630327,136.8173585867994L25.290191915803113,205.03542054826556L62.965269918841415,134.51930740110853Z"
       style="stroke-width: 1.51px; stroke: rgb(17, 18, 47);"
       fill="#11122f"
       id="path174" />
    <path
       d="M62.965269918841415,134.51930740110853L25.290191915803113,205.03542054826556L64.5895576610826,208.10529076072459Z"
       style="stroke-width: 1.51px; stroke: rgb(15, 17, 40);"
       fill="#0f1128"
       id="path176" />
    <path
       d="M62.965269918841415,134.51930740110853L64.5895576610826,208.10529076072459L105.67141132779204,181.52850583062477Z"
       style="stroke-width: 1.51px; stroke: rgb(22, 22, 55);"
       fill="#161637"
       id="path178" />
    <path
       d="M62.965269918841415,134.51930740110853L105.67141132779204,181.52850583062477L106.70467640084243,143.8381411286591Z"
       style="stroke-width: 1.51px; stroke: rgb(20, 21, 48);"
       fill="#141530"
       id="path180" />
    <path
       d="M106.70467640084243,143.8381411286591L105.67141132779204,181.52850583062477L144.24577210099886,131.74628852508044Z"
       style="stroke-width: 1.51px; stroke: rgb(23, 24, 52);"
       fill="#171834"
       id="path182" />
    <path
       d="M144.24577210099886,131.74628852508044L105.67141132779204,181.52850583062477L145.2263163195498,208.7761877894765Z"
       style="stroke-width: 1.51px; stroke: rgb(21, 23, 46);"
       fill="#15172e"
       id="path184" />
    <path
       d="M144.24577210099886,131.74628852508044L145.2263163195498,208.7761877894765L182.8860662448693,177.89994826748887Z"
       style="stroke-width: 1.51px; stroke: rgb(183, 190, 247);"
       fill="#b7bef7"
       id="path186" />
    <path
       d="M144.24577210099886,131.74628852508044L182.8860662448693,177.89994826748887L179.6732279358726,128.50418149161075Z"
       style="stroke-width: 1.51px; stroke: rgb(32, 31, 63);"
       fill="#201f3f"
       id="path188" />
    <path
       d="M179.6732279358726,128.50418149161075L182.8860662448693,177.89994826748887L224.63065912452473,135.07670125705818Z"
       style="stroke-width: 1.51px; stroke: rgb(32, 32, 58);"
       fill="#20203a"
       id="path190" />
    <path
       d="M224.63065912452473,135.07670125705818L182.8860662448693,177.89994826748887L219.00254499057706,204.37597338843682Z"
       style="stroke-width: 1.51px; stroke: rgb(48, 42, 77);"
       fill="#302a4d"
       id="path192" />
    <path
       d="M224.63065912452473,135.07670125705818L219.00254499057706,204.37597338843682L271.3754865783421,151.97635341794881Z"
       style="stroke-width: 1.51px; stroke: rgb(108, 66, 78);"
       fill="#6c424e"
       id="path194" />
    <path
       d="M271.3754865783421,151.97635341794881L219.00254499057706,204.37597338843682L268.03414632903076,196.43687742825404Z"
       style="stroke-width: 1.51px; stroke: rgb(121, 75, 75);"
       fill="#794b4b"
       id="path196" />
    <path
       d="M271.3754865783421,151.97635341794881L268.03414632903076,196.43687742825404L318.73567807490406,200.78276145958804Z"
       style="stroke-width: 1.51px; stroke: rgb(82, 55, 110);"
       fill="#52376e"
       id="path198" />
    <path
       d="M271.3754865783421,151.97635341794881L318.73567807490406,200.78276145958804L317.14888354938313,117.21189698999459Z"
       style="stroke-width: 1.51px; stroke: rgb(71, 50, 157);"
       fill="#47329d"
       id="path200" />
    <path
       d="M317.14888354938313,117.21189698999459L318.73567807490406,200.78276145958804L362.97267368988156,158.520380662476Z"
       style="stroke-width: 1.51px; stroke: rgb(50, 41, 67);"
       fill="#322943"
       id="path202" />
    <path
       d="M317.14888354938313,117.21189698999459L362.97267368988156,158.520380662476L378.9856803211376,150.13162503132494Z"
       style="stroke-width: 1.51px; stroke: rgb(42, 37, 67);"
       fill="#2a2543"
       id="path204" />
    <path
       d="M362.97267368988156,158.520380662476L318.73567807490406,200.78276145958804L345.6722475077575,208.10086701400562Z"
       style="stroke-width: 1.51px; stroke: rgb(30, 31, 62);"
       fill="#1e1f3e"
       id="path206" />
    <path
       d="M362.97267368988156,158.520380662476L345.6722475077575,208.10086701400562L390.341452908762,197.86093095045604Z"
       style="stroke-width: 1.51px; stroke: rgb(19, 20, 51);"
       fill="#131433"
       id="path208" />
    <path
       d="M362.97267368988156,158.520380662476L390.341452908762,197.86093095045604L378.9856803211376,150.13162503132494Z"
       style="stroke-width: 1.51px; stroke: rgb(14, 14, 42);"
       fill="#0e0e2a"
       id="path210" />
    <path
       d="M378.9856803211376,150.13162503132494L390.341452908762,197.86093095045604L433.3073291719776,193.36040408207762Z"
       style="stroke-width: 1.51px; stroke: rgb(14, 13, 44);"
       fill="#0e0d2c"
       id="path212" />
    <path
       d="M378.9856803211376,150.13162503132494L433.3073291719776,193.36040408207762L428.8242560614554,135.13703418249517Z"
       style="stroke-width: 1.51px; stroke: rgb(16, 16, 39);"
       fill="#101027"
       id="path214" />
    <path
       d="M428.8242560614554,135.13703418249517L433.3073291719776,193.36040408207762L468.6325563020114,192.03791461232862Z"
       style="stroke-width: 1.51px; stroke: rgb(17, 17, 43);"
       fill="#11112b"
       id="path216" />
    <path
       d="M428.8242560614554,135.13703418249517L468.6325563020114,192.03791461232862L486.7493559800545,143.64748690933814Z"
       style="stroke-width: 1.51px; stroke: rgb(11, 11, 36);"
       fill="#0b0b24"
       id="path218" />
    <path
       d="M486.7493559800545,143.64748690933814L468.6325563020114,192.03791461232862L521.952449562943,170.67462349596113Z"
       style="stroke-width: 1.51px; stroke: rgb(13, 13, 35);"
       fill="#0d0d23"
       id="path220" />
    <path
       d="M486.7493559800545,143.64748690933814L521.952449562943,170.67462349596113L510.6295941306103,135.61591204435558Z"
       style="stroke-width: 1.51px; stroke: rgb(21, 21, 47);"
       fill="#15152f"
       id="path222" />
    <path
       d="M510.6295941306103,135.61591204435558L521.952449562943,170.67462349596113L554,156.8340062870464Z"
       style="stroke-width: 1.51px; stroke: rgb(12, 13, 34);"
       fill="#0c0d22"
       id="path224" />
    <path
       d="M510.6295941306103,135.61591204435558L554,156.8340062870464L554,111Z"
       style="stroke-width: 1.51px; stroke: rgb(8, 9, 29);"
       fill="#08091d"
       id="path226" />
    <path
       d="M554,156.8340062870464L521.952449562943,170.67462349596113L554,166.5Z"
       style="stroke-width: 1.51px; stroke: rgb(20, 20, 44);"
       fill="#14142c"
       id="path228" />
    <path
       d="M25.290191915803113,205.03542054826556L0,166.5L0,222Z"
       style="stroke-width: 1.51px; stroke: rgb(23, 26, 60);"
       fill="#171a3c"
       id="path230" />
    <path
       d="M25.290191915803113,205.03542054826556L0,222L15.15847084142641,253.40192672949445Z"
       style="stroke-width: 1.51px; stroke: rgb(10, 14, 41);"
       fill="#0a0e29"
       id="path232" />
    <path
       d="M25.290191915803113,205.03542054826556L15.15847084142641,253.40192672949445L64.5895576610826,208.10529076072459Z"
       style="stroke-width: 1.51px; stroke: rgb(17, 18, 37);"
       fill="#111225"
       id="path234" />
    <path
       d="M64.5895576610826,208.10529076072459L15.15847084142641,253.40192672949445L51.09207411878711,268.93847887385516Z"
       style="stroke-width: 1.51px; stroke: rgb(31, 33, 58);"
       fill="#1f213a"
       id="path236" />
    <path
       d="M64.5895576610826,208.10529076072459L51.09207411878711,268.93847887385516L105.05713479466857,242.73768419277172Z"
       style="stroke-width: 1.51px; stroke: rgb(22, 21, 59);"
       fill="#16153b"
       id="path238" />
    <path
       d="M64.5895576610826,208.10529076072459L105.05713479466857,242.73768419277172L105.67141132779204,181.52850583062477Z"
       style="stroke-width: 1.51px; stroke: rgb(27, 27, 57);"
       fill="#1b1b39"
       id="path240" />
    <path
       d="M105.67141132779204,181.52850583062477L105.05713479466857,242.73768419277172L145.2263163195498,208.7761877894765Z"
       style="stroke-width: 1.51px; stroke: rgb(21, 20, 54);"
       fill="#151436"
       id="path242" />
    <path
       d="M145.2263163195498,208.7761877894765L105.05713479466857,242.73768419277172L152.390214677968,267.5380154343152Z"
       style="stroke-width: 1.51px; stroke: rgb(17, 18, 49);"
       fill="#111231"
       id="path244" />
    <path
       d="M145.2263163195498,208.7761877894765L152.390214677968,267.5380154343152L196.38878335710916,244.14009563398437Z"
       style="stroke-width: 1.51px; stroke: rgb(47, 42, 75);"
       fill="#2f2a4b"
       id="path246" />
    <path
       d="M145.2263163195498,208.7761877894765L196.38878335710916,244.14009563398437L182.8860662448693,177.89994826748887Z"
       style="stroke-width: 1.51px; stroke: rgb(58, 47, 106);"
       fill="#3a2f6a"
       id="path248" />
    <path
       d="M182.8860662448693,177.89994826748887L196.38878335710916,244.14009563398437L219.00254499057706,204.37597338843682Z"
       style="stroke-width: 1.51px; stroke: rgb(95, 65, 106);"
       fill="#5f416a"
       id="path250" />
    <path
       d="M219.00254499057706,204.37597338843682L196.38878335710916,244.14009563398437L230.4075236941821,243.26058869123727Z"
       style="stroke-width: 1.51px; stroke: rgb(241, 209, 186);"
       fill="#f1d1ba"
       id="path252" />
    <path
       d="M219.00254499057706,204.37597338843682L230.4075236941821,243.26058869123727L268.03414632903076,196.43687742825404Z"
       style="stroke-width: 1.51px; stroke: rgb(252, 252, 252);"
       fill="#fcfcfc"
       id="path254" />
    <path
       d="M268.03414632903076,196.43687742825404L230.4075236941821,243.26058869123727L257.03674678538107,257.0361741951343Z"
       style="stroke-width: 1.51px; stroke: rgb(233, 205, 192);"
       fill="#e9cdc0"
       id="path256" />
    <path
       d="M268.03414632903076,196.43687742825404L257.03674678538107,257.0361741951343L312.0806942587357,245.18602010737087Z"
       style="stroke-width: 1.51px; stroke: rgb(161, 121, 119);"
       fill="#a17977"
       id="path258" />
    <path
       d="M268.03414632903076,196.43687742825404L312.0806942587357,245.18602010737087L318.73567807490406,200.78276145958804Z"
       style="stroke-width: 1.51px; stroke: rgb(135, 105, 132);"
       fill="#876984"
       id="path260" />
    <path
       d="M318.73567807490406,200.78276145958804L312.0806942587357,245.18602010737087L345.6722475077575,208.10086701400562Z"
       style="stroke-width: 1.51px; stroke: rgb(50, 38, 78);"
       fill="#32264e"
       id="path262" />
    <path
       d="M345.6722475077575,208.10086701400562L312.0806942587357,245.18602010737087L355.12637445834855,246.00508365800917Z"
       style="stroke-width: 1.51px; stroke: rgb(31, 27, 64);"
       fill="#1f1b40"
       id="path264" />
    <path
       d="M345.6722475077575,208.10086701400562L355.12637445834855,246.00508365800917L390.341452908762,197.86093095045604Z"
       style="stroke-width: 1.51px; stroke: rgb(29, 30, 60);"
       fill="#1d1e3c"
       id="path266" />
    <path
       d="M390.341452908762,197.86093095045604L355.12637445834855,246.00508365800917L398.82665705130523,257.6578052120657Z"
       style="stroke-width: 1.51px; stroke: rgb(22, 22, 56);"
       fill="#161638"
       id="path268" />
    <path
       d="M390.341452908762,197.86093095045604L398.82665705130523,257.6578052120657L436.6640531065228,248.6466384085646Z"
       style="stroke-width: 1.51px; stroke: rgb(12, 14, 39);"
       fill="#0c0e27"
       id="path270" />
    <path
       d="M390.341452908762,197.86093095045604L436.6640531065228,248.6466384085646L433.3073291719776,193.36040408207762Z"
       style="stroke-width: 1.51px; stroke: rgb(17, 13, 38);"
       fill="#110d26"
       id="path272" />
    <path
       d="M433.3073291719776,193.36040408207762L436.6640531065228,248.6466384085646L468.6325563020114,192.03791461232862Z"
       style="stroke-width: 1.51px; stroke: rgb(20, 18, 42);"
       fill="#14122a"
       id="path274" />
    <path
       d="M468.6325563020114,192.03791461232862L436.6640531065228,248.6466384085646L487.44016120586093,251.18214577919218Z"
       style="stroke-width: 1.51px; stroke: rgb(6, 6, 32);"
       fill="#060620"
       id="path276" />
    <path
       d="M468.6325563020114,192.03791461232862L487.44016120586093,251.18214577919218L526.6658506513253,247.48410892301186Z"
       style="stroke-width: 1.51px; stroke: rgb(14, 14, 41);"
       fill="#0e0e29"
       id="path278" />
    <path
       d="M468.6325563020114,192.03791461232862L526.6658506513253,247.48410892301186L521.952449562943,170.67462349596113Z"
       style="stroke-width: 1.51px; stroke: rgb(16, 16, 41);"
       fill="#101029"
       id="path280" />
    <path
       d="M521.952449562943,170.67462349596113L526.6658506513253,247.48410892301186L554,222Z"
       style="stroke-width: 1.51px; stroke: rgb(11, 11, 37);"
       fill="#0b0b25"
       id="path282" />
    <path
       d="M521.952449562943,170.67462349596113L554,222L554,166.5Z"
       style="stroke-width: 1.51px; stroke: rgb(15, 13, 37);"
       fill="#0f0d25"
       id="path284" />
    <path
       d="M15.15847084142641,253.40192672949445L0,222L0,277.5Z"
       style="stroke-width: 1.51px; stroke: rgb(16, 20, 49);"
       fill="#101431"
       id="path286" />
    <path
       d="M15.15847084142641,253.40192672949445L0,277.5L51.09207411878711,268.93847887385516Z"
       style="stroke-width: 1.51px; stroke: rgb(35, 34, 65);"
       fill="#232241"
       id="path288" />
    <path
       d="M51.09207411878711,268.93847887385516L0,277.5L19.473388675281374,322.0954707730494Z"
       style="stroke-width: 1.51px; stroke: rgb(35, 31, 63);"
       fill="#231f3f"
       id="path290" />
    <path
       d="M51.09207411878711,268.93847887385516L19.473388675281374,322.0954707730494L60.46400656759158,308.5144487380029Z"
       style="stroke-width: 1.51px; stroke: rgb(55, 51, 74);"
       fill="#37334a"
       id="path292" />
    <path
       d="M51.09207411878711,268.93847887385516L60.46400656759158,308.5144487380029L111.45685710371345,312.189405675387Z"
       style="stroke-width: 1.51px; stroke: rgb(51, 47, 72);"
       fill="#332f48"
       id="path294" />
    <path
       d="M51.09207411878711,268.93847887385516L111.45685710371345,312.189405675387L105.05713479466857,242.73768419277172Z"
       style="stroke-width: 1.51px; stroke: rgb(40, 41, 71);"
       fill="#282947"
       id="path296" />
    <path
       d="M105.05713479466857,242.73768419277172L111.45685710371345,312.189405675387L152.390214677968,267.5380154343152Z"
       style="stroke-width: 1.51px; stroke: rgb(27, 27, 61);"
       fill="#1b1b3d"
       id="path298" />
    <path
       d="M152.390214677968,267.5380154343152L111.45685710371345,312.189405675387L164.12992707140953,305.1237126649318Z"
       style="stroke-width: 1.51px; stroke: rgb(89, 66, 82);"
       fill="#594252"
       id="path300" />
    <path
       d="M152.390214677968,267.5380154343152L164.12992707140953,305.1237126649318L180.21675690386706,305.10879779573514Z"
       style="stroke-width: 1.51px; stroke: rgb(90, 64, 77);"
       fill="#5a404d"
       id="path302" />
    <path
       d="M152.390214677968,267.5380154343152L180.21675690386706,305.10879779573514L196.38878335710916,244.14009563398437Z"
       style="stroke-width: 1.51px; stroke: rgb(68, 48, 97);"
       fill="#443061"
       id="path304" />
    <path
       d="M196.38878335710916,244.14009563398437L180.21675690386706,305.10879779573514L241.63170192577806,290.3088047783125Z"
       style="stroke-width: 1.51px; stroke: rgb(253, 255, 249);"
       fill="#fdfff9"
       id="path306" />
    <path
       d="M196.38878335710916,244.14009563398437L241.63170192577806,290.3088047783125L230.4075236941821,243.26058869123727Z"
       style="stroke-width: 1.51px; stroke: rgb(253, 253, 251);"
       fill="#fdfdfb"
       id="path308" />
    <path
       d="M230.4075236941821,243.26058869123727L241.63170192577806,290.3088047783125L257.03674678538107,257.0361741951343Z"
       style="stroke-width: 1.51px; stroke: rgb(251, 251, 251);"
       fill="#fbfbfb"
       id="path310" />
    <path
       d="M257.03674678538107,257.0361741951343L241.63170192577806,290.3088047783125L266.11565527655364,306.0493412598273Z"
       style="stroke-width: 1.51px; stroke: rgb(229, 197, 147);"
       fill="#e5c593"
       id="path312" />
    <path
       d="M257.03674678538107,257.0361741951343L266.11565527655364,306.0493412598273L308.81516562119975,295.7628153500102Z"
       style="stroke-width: 1.51px; stroke: rgb(202, 167, 126);"
       fill="#caa77e"
       id="path314" />
    <path
       d="M257.03674678538107,257.0361741951343L308.81516562119975,295.7628153500102L312.0806942587357,245.18602010737087Z"
       style="stroke-width: 1.51px; stroke: rgb(155, 109, 86);"
       fill="#9b6d56"
       id="path316" />
    <path
       d="M312.0806942587357,245.18602010737087L308.81516562119975,295.7628153500102L352.2081777254961,299.4586037297363Z"
       style="stroke-width: 1.51px; stroke: rgb(167, 137, 105);"
       fill="#a78969"
       id="path318" />
    <path
       d="M312.0806942587357,245.18602010737087L352.2081777254961,299.4586037297363L355.12637445834855,246.00508365800917Z"
       style="stroke-width: 1.51px; stroke: rgb(103, 81, 76);"
       fill="#67514c"
       id="path320" />
    <path
       d="M355.12637445834855,246.00508365800917L352.2081777254961,299.4586037297363L400.938481790071,276.08435097214965Z"
       style="stroke-width: 1.51px; stroke: rgb(19, 17, 41);"
       fill="#131129"
       id="path322" />
    <path
       d="M355.12637445834855,246.00508365800917L400.938481790071,276.08435097214965L398.82665705130523,257.6578052120657Z"
       style="stroke-width: 1.51px; stroke: rgb(65, 52, 72);"
       fill="#413448"
       id="path324" />
    <path
       d="M398.82665705130523,257.6578052120657L400.938481790071,276.08435097214965L436.6640531065228,248.6466384085646Z"
       style="stroke-width: 1.51px; stroke: rgb(51, 45, 73);"
       fill="#332d49"
       id="path326" />
    <path
       d="M436.6640531065228,248.6466384085646L400.938481790071,276.08435097214965L436.211885024645,307.2212916439807Z"
       style="stroke-width: 1.51px; stroke: rgb(73, 60, 74);"
       fill="#493c4a"
       id="path328" />
    <path
       d="M436.6640531065228,248.6466384085646L436.211885024645,307.2212916439807L481.6211272441637,308.7261653439738Z"
       style="stroke-width: 1.51px; stroke: rgb(51, 41, 68);"
       fill="#332944"
       id="path330" />
    <path
       d="M436.6640531065228,248.6466384085646L481.6211272441637,308.7261653439738L487.44016120586093,251.18214577919218Z"
       style="stroke-width: 1.51px; stroke: rgb(49, 42, 76);"
       fill="#312a4c"
       id="path332" />
    <path
       d="M487.44016120586093,251.18214577919218L481.6211272441637,308.7261653439738L525.6726451437181,290.8232912756743Z"
       style="stroke-width: 1.51px; stroke: rgb(49, 46, 65);"
       fill="#312e41"
       id="path334" />
    <path
       d="M487.44016120586093,251.18214577919218L525.6726451437181,290.8232912756743L526.6658506513253,247.48410892301186Z"
       style="stroke-width: 1.51px; stroke: rgb(35, 35, 61);"
       fill="#23233d"
       id="path336" />
    <path
       d="M526.6658506513253,247.48410892301186L525.6726451437181,290.8232912756743L554,277.5Z"
       style="stroke-width: 1.51px; stroke: rgb(33, 29, 54);"
       fill="#211d36"
       id="path338" />
    <path
       d="M526.6658506513253,247.48410892301186L554,277.5L554,222Z"
       style="stroke-width: 1.51px; stroke: rgb(19, 20, 37);"
       fill="#131425"
       id="path340" />
    <path
       d="M19.473388675281374,322.0954707730494L0,277.5L0,333Z"
       style="stroke-width: 1.51px; stroke: rgb(28, 27, 58);"
       fill="#1c1b3a"
       id="path342" />
    <path
       d="M19.473388675281374,322.0954707730494L0,333L18.61187318498722,352.6689252562504Z"
       style="stroke-width: 1.51px; stroke: rgb(29, 29, 55);"
       fill="#1d1d37"
       id="path344" />
    <path
       d="M19.473388675281374,322.0954707730494L18.61187318498722,352.6689252562504L60.46400656759158,308.5144487380029Z"
       style="stroke-width: 1.51px; stroke: rgb(36, 35, 67);"
       fill="#242343"
       id="path346" />
    <path
       d="M60.46400656759158,308.5144487380029L18.61187318498722,352.6689252562504L67.16338074715289,369.47888495016736Z"
       style="stroke-width: 1.51px; stroke: rgb(38, 37, 63);"
       fill="#26253f"
       id="path348" />
    <path
       d="M60.46400656759158,308.5144487380029L67.16338074715289,369.47888495016736L111.45685710371345,312.189405675387Z"
       style="stroke-width: 1.51px; stroke: rgb(49, 45, 78);"
       fill="#312d4e"
       id="path350" />
    <path
       d="M111.45685710371345,312.189405675387L67.16338074715289,369.47888495016736L104.32719014766376,376.9886977640672Z"
       style="stroke-width: 1.51px; stroke: rgb(30, 23, 54);"
       fill="#1e1736"
       id="path352" />
    <path
       d="M111.45685710371345,312.189405675387L104.32719014766376,376.9886977640672L132.030089280348,368.48883697650035Z"
       style="stroke-width: 1.51px; stroke: rgb(54, 47, 80);"
       fill="#362f50"
       id="path354" />
    <path
       d="M111.45685710371345,312.189405675387L132.030089280348,368.48883697650035L164.12992707140953,305.1237126649318Z"
       style="stroke-width: 1.51px; stroke: rgb(59, 52, 82);"
       fill="#3b3452"
       id="path356" />
    <path
       d="M164.12992707140953,305.1237126649318L132.030089280348,368.48883697650035L190.2260514241847,360.7614773685127Z"
       style="stroke-width: 1.51px; stroke: rgb(62, 51, 86);"
       fill="#3e3356"
       id="path358" />
    <path
       d="M164.12992707140953,305.1237126649318L190.2260514241847,360.7614773685127L180.21675690386706,305.10879779573514Z"
       style="stroke-width: 1.51px; stroke: rgb(85, 63, 86);"
       fill="#553f56"
       id="path360" />
    <path
       d="M180.21675690386706,305.10879779573514L190.2260514241847,360.7614773685127L241.63170192577806,290.3088047783125Z"
       style="stroke-width: 1.51px; stroke: rgb(84, 66, 89);"
       fill="#544259"
       id="path362" />
    <path
       d="M241.63170192577806,290.3088047783125L190.2260514241847,360.7614773685127L250.1961117821162,358.2231862086297Z"
       style="stroke-width: 1.51px; stroke: rgb(52, 39, 69);"
       fill="#342745"
       id="path364" />
    <path
       d="M241.63170192577806,290.3088047783125L250.1961117821162,358.2231862086297L266.11565527655364,306.0493412598273Z"
       style="stroke-width: 1.51px; stroke: rgb(96, 73, 81);"
       fill="#604951"
       id="path366" />
    <path
       d="M266.11565527655364,306.0493412598273L250.1961117821162,358.2231862086297L259.0754211154216,357.0890019980401Z"
       style="stroke-width: 1.51px; stroke: rgb(58, 42, 67);"
       fill="#3a2a43"
       id="path368" />
    <path
       d="M266.11565527655364,306.0493412598273L259.0754211154216,357.0890019980401L306.67440640455504,367.3145071845578Z"
       style="stroke-width: 1.51px; stroke: rgb(65, 50, 72);"
       fill="#413248"
       id="path370" />
    <path
       d="M266.11565527655364,306.0493412598273L306.67440640455504,367.3145071845578L308.81516562119975,295.7628153500102Z"
       style="stroke-width: 1.51px; stroke: rgb(85, 63, 83);"
       fill="#553f53"
       id="path372" />
    <path
       d="M308.81516562119975,295.7628153500102L306.67440640455504,367.3145071845578L328.9838701147128,356.7816109166424Z"
       style="stroke-width: 1.51px; stroke: rgb(46, 41, 81);"
       fill="#2e2951"
       id="path374" />
    <path
       d="M308.81516562119975,295.7628153500102L328.9838701147128,356.7816109166424L352.2081777254961,299.4586037297363Z"
       style="stroke-width: 1.51px; stroke: rgb(68, 55, 85);"
       fill="#443755"
       id="path376" />
    <path
       d="M352.2081777254961,299.4586037297363L328.9838701147128,356.7816109166424L397.61440948930215,365.36360122043266Z"
       style="stroke-width: 1.51px; stroke: rgb(41, 39, 75);"
       fill="#29274b"
       id="path378" />
    <path
       d="M352.2081777254961,299.4586037297363L397.61440948930215,365.36360122043266L400.938481790071,276.08435097214965Z"
       style="stroke-width: 1.51px; stroke: rgb(39, 39, 65);"
       fill="#272741"
       id="path380" />
    <path
       d="M400.938481790071,276.08435097214965L397.61440948930215,365.36360122043266L436.211885024645,307.2212916439807Z"
       style="stroke-width: 1.51px; stroke: rgb(28, 28, 56);"
       fill="#1c1c38"
       id="path382" />
    <path
       d="M436.211885024645,307.2212916439807L397.61440948930215,365.36360122043266L440.3535118024259,348.52816278735514Z"
       style="stroke-width: 1.51px; stroke: rgb(37, 35, 62);"
       fill="#25233e"
       id="path384" />
    <path
       d="M436.211885024645,307.2212916439807L440.3535118024259,348.52816278735514L481.6211272441637,308.7261653439738Z"
       style="stroke-width: 1.51px; stroke: rgb(47, 44, 70);"
       fill="#2f2c46"
       id="path386" />
    <path
       d="M481.6211272441637,308.7261653439738L440.3535118024259,348.52816278735514L480.57782279370514,362.05260298141314Z"
       style="stroke-width: 1.51px; stroke: rgb(17, 17, 41);"
       fill="#111129"
       id="path388" />
    <path
       d="M481.6211272441637,308.7261653439738L480.57782279370514,362.05260298141314L527.0441028725746,368.325314249753Z"
       style="stroke-width: 1.51px; stroke: rgb(13, 14, 35);"
       fill="#0d0e23"
       id="path390" />
    <path
       d="M481.6211272441637,308.7261653439738L527.0441028725746,368.325314249753L554,333Z"
       style="stroke-width: 1.51px; stroke: rgb(16, 14, 36);"
       fill="#100e24"
       id="path392" />
    <path
       d="M481.6211272441637,308.7261653439738L554,333L525.6726451437181,290.8232912756743Z"
       style="stroke-width: 1.51px; stroke: rgb(29, 29, 53);"
       fill="#1d1d35"
       id="path394" />
    <path
       d="M525.6726451437181,290.8232912756743L554,333L554,307.2073504252524Z"
       style="stroke-width: 1.51px; stroke: rgb(28, 29, 48);"
       fill="#1c1d30"
       id="path396" />
    <path
       d="M525.6726451437181,290.8232912756743L554,307.2073504252524L554,277.5Z"
       style="stroke-width: 1.51px; stroke: rgb(17, 16, 30);"
       fill="#11101e"
       id="path398" />
    <path
       d="M18.61187318498722,352.6689252562504L0,333L0,388.5Z"
       style="stroke-width: 1.51px; stroke: rgb(30, 30, 66);"
       fill="#1e1e42"
       id="path400" />
    <path
       d="M18.61187318498722,352.6689252562504L0,388.5L28.632124772133558,410.20779381727556Z"
       style="stroke-width: 1.51px; stroke: rgb(31, 32, 60);"
       fill="#1f203c"
       id="path402" />
    <path
       d="M18.61187318498722,352.6689252562504L28.632124772133558,410.20779381727556L67.16338074715289,369.47888495016736Z"
       style="stroke-width: 1.51px; stroke: rgb(37, 33, 68);"
       fill="#252144"
       id="path404" />
    <path
       d="M67.16338074715289,369.47888495016736L28.632124772133558,410.20779381727556L41.6,415Z"
       style="stroke-width: 1.51px; stroke: rgb(36, 38, 62);"
       fill="#24263e"
       id="path406" />
    <path
       d="M67.16338074715289,369.47888495016736L41.6,415L76.6689783278774,415Z"
       style="stroke-width: 1.51px; stroke: rgb(22, 22, 52);"
       fill="#161634"
       id="path408" />
    <path
       d="M67.16338074715289,369.47888495016736L76.6689783278774,415L83.2,415Z"
       style="stroke-width: 1.51px; stroke: rgb(27, 28, 59);"
       fill="#1b1c3b"
       id="path410" />
    <path
       d="M67.16338074715289,369.47888495016736L83.2,415L104.32719014766376,376.9886977640672Z"
       style="stroke-width: 1.51px; stroke: rgb(24, 26, 49);"
       fill="#181a31"
       id="path412" />
    <path
       d="M104.32719014766376,376.9886977640672L83.2,415L95.76603832485695,415Z"
       style="stroke-width: 1.51px; stroke: rgb(28, 27, 58);"
       fill="#1c1b3a"
       id="path414" />
    <path
       d="M104.32719014766376,376.9886977640672L95.76603832485695,415L124.80000000000001,415Z"
       style="stroke-width: 1.51px; stroke: rgb(37, 35, 73);"
       fill="#252349"
       id="path416" />
    <path
       d="M104.32719014766376,376.9886977640672L124.80000000000001,415L132.030089280348,368.48883697650035Z"
       style="stroke-width: 1.51px; stroke: rgb(31, 30, 62);"
       fill="#1f1e3e"
       id="path418" />
    <path
       d="M132.030089280348,368.48883697650035L124.80000000000001,415L139.9224997824544,415Z"
       style="stroke-width: 1.51px; stroke: rgb(29, 30, 60);"
       fill="#1d1e3c"
       id="path420" />
    <path
       d="M132.030089280348,368.48883697650035L139.9224997824544,415L166.4,415Z"
       style="stroke-width: 1.51px; stroke: rgb(27, 26, 60);"
       fill="#1b1a3c"
       id="path422" />
    <path
       d="M132.030089280348,368.48883697650035L166.4,415L190.2260514241847,360.7614773685127Z"
       style="stroke-width: 1.51px; stroke: rgb(28, 28, 56);"
       fill="#1c1c38"
       id="path424" />
    <path
       d="M190.2260514241847,360.7614773685127L166.4,415L198.19859937383404,415Z"
       style="stroke-width: 1.51px; stroke: rgb(32, 29, 68);"
       fill="#201d44"
       id="path426" />
    <path
       d="M190.2260514241847,360.7614773685127L198.19859937383404,415L208,415Z"
       style="stroke-width: 1.51px; stroke: rgb(45, 43, 74);"
       fill="#2d2b4a"
       id="path428" />
    <path
       d="M190.2260514241847,360.7614773685127L208,415L245.00473630213983,403.28979330602897Z"
       style="stroke-width: 1.51px; stroke: rgb(32, 27, 57);"
       fill="#201b39"
       id="path430" />
    <path
       d="M190.2260514241847,360.7614773685127L245.00473630213983,403.28979330602897L250.1961117821162,358.2231862086297Z"
       style="stroke-width: 1.51px; stroke: rgb(30, 32, 59);"
       fill="#1e203b"
       id="path432" />
    <path
       d="M250.1961117821162,358.2231862086297L245.00473630213983,403.28979330602897L259.0754211154216,357.0890019980401Z"
       style="stroke-width: 1.51px; stroke: rgb(29, 29, 57);"
       fill="#1d1d39"
       id="path434" />
    <path
       d="M259.0754211154216,357.0890019980401L245.00473630213983,403.28979330602897L291.2,415Z"
       style="stroke-width: 1.51px; stroke: rgb(26, 26, 54);"
       fill="#1a1a36"
       id="path436" />
    <path
       d="M259.0754211154216,357.0890019980401L291.2,415L306.67440640455504,367.3145071845578Z"
       style="stroke-width: 1.51px; stroke: rgb(32, 33, 63);"
       fill="#20213f"
       id="path438" />
    <path
       d="M306.67440640455504,367.3145071845578L291.2,415L332.8,415Z"
       style="stroke-width: 1.51px; stroke: rgb(26, 26, 54);"
       fill="#1a1a36"
       id="path440" />
    <path
       d="M306.67440640455504,367.3145071845578L332.8,415L328.9838701147128,356.7816109166424Z"
       style="stroke-width: 1.51px; stroke: rgb(41, 38, 67);"
       fill="#292643"
       id="path442" />
    <path
       d="M328.9838701147128,356.7816109166424L332.8,415L374.40000000000003,415Z"
       style="stroke-width: 1.51px; stroke: rgb(31, 31, 55);"
       fill="#1f1f37"
       id="path444" />
    <path
       d="M328.9838701147128,356.7816109166424L374.40000000000003,415L397.61440948930215,365.36360122043266Z"
       style="stroke-width: 1.51px; stroke: rgb(31, 28, 58);"
       fill="#1f1c3a"
       id="path446" />
    <path
       d="M397.61440948930215,365.36360122043266L374.40000000000003,415L416,415Z"
       style="stroke-width: 1.51px; stroke: rgb(33, 33, 59);"
       fill="#21213b"
       id="path448" />
    <path
       d="M397.61440948930215,365.36360122043266L416,415L440.3535118024259,348.52816278735514Z"
       style="stroke-width: 1.51px; stroke: rgb(29, 31, 56);"
       fill="#1d1f38"
       id="path450" />
    <path
       d="M440.3535118024259,348.52816278735514L416,415L457.6,415Z"
       style="stroke-width: 1.51px; stroke: rgb(26, 24, 48);"
       fill="#1a1830"
       id="path452" />
    <path
       d="M440.3535118024259,348.52816278735514L457.6,415L480.57782279370514,362.05260298141314Z"
       style="stroke-width: 1.51px; stroke: rgb(36, 36, 64);"
       fill="#242440"
       id="path454" />
    <path
       d="M480.57782279370514,362.05260298141314L457.6,415L499.20000000000005,415Z"
       style="stroke-width: 1.51px; stroke: rgb(20, 19, 42);"
       fill="#14132a"
       id="path456" />
    <path
       d="M480.57782279370514,362.05260298141314L499.20000000000005,415L527.0441028725746,368.325314249753Z"
       style="stroke-width: 1.51px; stroke: rgb(20, 23, 42);"
       fill="#14172a"
       id="path458" />
    <path
       d="M527.0441028725746,368.325314249753L499.20000000000005,415L540.8000000000001,415Z"
       style="stroke-width: 1.51px; stroke: rgb(6, 8, 28);"
       fill="#06081c"
       id="path460" />
    <path
       d="M527.0441028725746,368.325314249753L540.8000000000001,415L554,388.5Z"
       style="stroke-width: 1.51px; stroke: rgb(10, 11, 31);"
       fill="#0a0b1f"
       id="path462" />
    <path
       d="M527.0441028725746,368.325314249753L554,388.5L554,333Z"
       style="stroke-width: 1.51px; stroke: rgb(11, 11, 29);"
       fill="#0b0b1d"
       id="path464" />
    <path
       d="M28.632124772133558,410.20779381727556L0,388.5L0,415Z"
       style="stroke-width: 1.51px; stroke: rgb(26, 27, 57);"
       fill="#1a1b39"
       id="path466" />
    <path
       d="M28.632124772133558,410.20779381727556L0,415L41.6,415Z"
       style="stroke-width: 1.51px; stroke: rgb(38, 38, 62);"
       fill="#26263e"
       id="path468" />
    <path
       d="M245.00473630213983,403.28979330602897L208,415L249.60000000000002,415Z"
       style="stroke-width: 1.51px; stroke: rgb(30, 32, 57);"
       fill="#1e2039"
       id="path470" />
    <path
       d="M245.00473630213983,403.28979330602897L249.60000000000002,415L291.2,415Z"
       style="stroke-width: 1.51px; stroke: rgb(15, 15, 41);"
       fill="#0f0f29"
       id="path472" />
    <path
       d="M540.8000000000001,415L554,415L554,388.5Z"
       style="stroke-width: 1.51px; stroke: rgb(18, 19, 37);"
       fill="#121325"
       id="path474" />
  </g>
</svg>
